<mxfile host="app.diagrams.net" agent="Mozilla/5.0 (Macintosh; Intel Mac OS X 10_15_7) AppleWebKit/537.36 (KHTML, like Gecko) Chrome/134.0.0.0 Safari/537.36" version="26.1.0">
  <diagram name="第 1 页" id="hJObz6MQkuNjEbWugFrw">
    <mxGraphModel dx="2690" dy="1758" grid="1" gridSize="10" guides="1" tooltips="1" connect="1" arrows="1" fold="1" page="1" pageScale="1" pageWidth="827" pageHeight="1169" math="0" shadow="0">
      <root>
        <mxCell id="0" />
        <mxCell id="1" parent="0" />
        <mxCell id="VjPRYB1g1QLdpqp4aKT3-9" value="" style="edgeStyle=orthogonalEdgeStyle;rounded=0;orthogonalLoop=1;jettySize=auto;html=1;" parent="1" source="VjPRYB1g1QLdpqp4aKT3-1" target="VjPRYB1g1QLdpqp4aKT3-8" edge="1">
          <mxGeometry relative="1" as="geometry" />
        </mxCell>
        <mxCell id="VjPRYB1g1QLdpqp4aKT3-1" value="game" style="rounded=0;whiteSpace=wrap;html=1;" parent="1" vertex="1">
          <mxGeometry x="400" y="92" width="120" height="60" as="geometry" />
        </mxCell>
        <mxCell id="VjPRYB1g1QLdpqp4aKT3-37" style="edgeStyle=orthogonalEdgeStyle;rounded=0;orthogonalLoop=1;jettySize=auto;html=1;" parent="1" source="VjPRYB1g1QLdpqp4aKT3-2" target="VjPRYB1g1QLdpqp4aKT3-36" edge="1">
          <mxGeometry relative="1" as="geometry" />
        </mxCell>
        <mxCell id="bTGDOJ0MJef6S4-PFqFq-30" style="edgeStyle=orthogonalEdgeStyle;rounded=0;orthogonalLoop=1;jettySize=auto;html=1;entryX=0.5;entryY=0;entryDx=0;entryDy=0;" parent="1" source="VjPRYB1g1QLdpqp4aKT3-2" target="VjPRYB1g1QLdpqp4aKT3-30" edge="1">
          <mxGeometry relative="1" as="geometry" />
        </mxCell>
        <mxCell id="bTGDOJ0MJef6S4-PFqFq-54" style="edgeStyle=orthogonalEdgeStyle;rounded=0;orthogonalLoop=1;jettySize=auto;html=1;entryX=0.5;entryY=0;entryDx=0;entryDy=0;" parent="1" source="VjPRYB1g1QLdpqp4aKT3-2" target="VjPRYB1g1QLdpqp4aKT3-19" edge="1">
          <mxGeometry relative="1" as="geometry" />
        </mxCell>
        <mxCell id="bTGDOJ0MJef6S4-PFqFq-64" style="edgeStyle=orthogonalEdgeStyle;rounded=0;orthogonalLoop=1;jettySize=auto;html=1;" parent="1" source="VjPRYB1g1QLdpqp4aKT3-2" target="VjPRYB1g1QLdpqp4aKT3-1" edge="1">
          <mxGeometry relative="1" as="geometry" />
        </mxCell>
        <mxCell id="VjPRYB1g1QLdpqp4aKT3-2" value="map" style="rounded=0;whiteSpace=wrap;html=1;" parent="1" vertex="1">
          <mxGeometry x="400" y="205" width="120" height="60" as="geometry" />
        </mxCell>
        <mxCell id="bTGDOJ0MJef6S4-PFqFq-63" style="edgeStyle=orthogonalEdgeStyle;rounded=0;orthogonalLoop=1;jettySize=auto;html=1;entryX=0;entryY=0.5;entryDx=0;entryDy=0;" parent="1" source="PWMtbpQYr318IuW6NhmS-2" target="VjPRYB1g1QLdpqp4aKT3-1" edge="1">
          <mxGeometry relative="1" as="geometry">
            <mxPoint x="189.99999999999955" y="205" as="sourcePoint" />
          </mxGeometry>
        </mxCell>
        <mxCell id="VjPRYB1g1QLdpqp4aKT3-28" value="" style="edgeStyle=orthogonalEdgeStyle;rounded=0;orthogonalLoop=1;jettySize=auto;html=1;" parent="1" source="VjPRYB1g1QLdpqp4aKT3-6" target="VjPRYB1g1QLdpqp4aKT3-27" edge="1">
          <mxGeometry relative="1" as="geometry" />
        </mxCell>
        <mxCell id="bTGDOJ0MJef6S4-PFqFq-65" style="edgeStyle=orthogonalEdgeStyle;rounded=0;orthogonalLoop=1;jettySize=auto;html=1;exitX=0.5;exitY=0;exitDx=0;exitDy=0;entryX=1;entryY=0.5;entryDx=0;entryDy=0;" parent="1" source="VjPRYB1g1QLdpqp4aKT3-6" target="VjPRYB1g1QLdpqp4aKT3-1" edge="1">
          <mxGeometry relative="1" as="geometry" />
        </mxCell>
        <mxCell id="VjPRYB1g1QLdpqp4aKT3-6" value="tile" style="whiteSpace=wrap;html=1;rounded=0;" parent="1" vertex="1">
          <mxGeometry x="780" y="190" width="120" height="60" as="geometry" />
        </mxCell>
        <mxCell id="VjPRYB1g1QLdpqp4aKT3-8" value="resource" style="whiteSpace=wrap;html=1;rounded=0;" parent="1" vertex="1">
          <mxGeometry x="400" y="-60" width="120" height="60" as="geometry" />
        </mxCell>
        <mxCell id="VjPRYB1g1QLdpqp4aKT3-19" value="land sink" style="whiteSpace=wrap;html=1;rounded=0;" parent="1" vertex="1">
          <mxGeometry x="250" y="340" width="120" height="60" as="geometry" />
        </mxCell>
        <mxCell id="VjPRYB1g1QLdpqp4aKT3-27" value="reshuffle the tile" style="whiteSpace=wrap;html=1;rounded=0;" parent="1" vertex="1">
          <mxGeometry x="960" y="190" width="120" height="60" as="geometry" />
        </mxCell>
        <mxCell id="VjPRYB1g1QLdpqp4aKT3-30" value="capture treasure" style="rounded=0;whiteSpace=wrap;html=1;" parent="1" vertex="1">
          <mxGeometry x="400" y="445" width="120" height="60" as="geometry" />
        </mxCell>
        <mxCell id="VjPRYB1g1QLdpqp4aKT3-36" value="water level rise" style="rounded=0;whiteSpace=wrap;html=1;" parent="1" vertex="1">
          <mxGeometry x="560" y="340" width="120" height="60" as="geometry" />
        </mxCell>
        <mxCell id="eDjvxQ4qI4vpgXlW1Nu9-4" value="" style="edgeStyle=orthogonalEdgeStyle;rounded=0;orthogonalLoop=1;jettySize=auto;html=1;" parent="1" source="eDjvxQ4qI4vpgXlW1Nu9-2" target="eDjvxQ4qI4vpgXlW1Nu9-3" edge="1">
          <mxGeometry relative="1" as="geometry" />
        </mxCell>
        <mxCell id="eDjvxQ4qI4vpgXlW1Nu9-6" value="" style="edgeStyle=orthogonalEdgeStyle;rounded=0;orthogonalLoop=1;jettySize=auto;html=1;" parent="1" source="eDjvxQ4qI4vpgXlW1Nu9-2" target="eDjvxQ4qI4vpgXlW1Nu9-5" edge="1">
          <mxGeometry relative="1" as="geometry" />
        </mxCell>
        <mxCell id="eDjvxQ4qI4vpgXlW1Nu9-8" value="" style="edgeStyle=orthogonalEdgeStyle;rounded=0;orthogonalLoop=1;jettySize=auto;html=1;" parent="1" source="eDjvxQ4qI4vpgXlW1Nu9-2" target="eDjvxQ4qI4vpgXlW1Nu9-7" edge="1">
          <mxGeometry relative="1" as="geometry" />
        </mxCell>
        <mxCell id="eDjvxQ4qI4vpgXlW1Nu9-2" value="start menu" style="rounded=0;whiteSpace=wrap;html=1;" parent="1" vertex="1">
          <mxGeometry x="-979.9999999999999" y="-420" width="120" height="60" as="geometry" />
        </mxCell>
        <mxCell id="eDjvxQ4qI4vpgXlW1Nu9-10" value="" style="edgeStyle=orthogonalEdgeStyle;rounded=0;orthogonalLoop=1;jettySize=auto;html=1;" parent="1" source="eDjvxQ4qI4vpgXlW1Nu9-3" target="eDjvxQ4qI4vpgXlW1Nu9-9" edge="1">
          <mxGeometry relative="1" as="geometry" />
        </mxCell>
        <mxCell id="eDjvxQ4qI4vpgXlW1Nu9-12" value="" style="edgeStyle=orthogonalEdgeStyle;rounded=0;orthogonalLoop=1;jettySize=auto;html=1;" parent="1" source="eDjvxQ4qI4vpgXlW1Nu9-3" target="eDjvxQ4qI4vpgXlW1Nu9-5" edge="1">
          <mxGeometry relative="1" as="geometry" />
        </mxCell>
        <mxCell id="eDjvxQ4qI4vpgXlW1Nu9-14" value="" style="edgeStyle=orthogonalEdgeStyle;rounded=0;orthogonalLoop=1;jettySize=auto;html=1;" parent="1" source="eDjvxQ4qI4vpgXlW1Nu9-3" target="eDjvxQ4qI4vpgXlW1Nu9-13" edge="1">
          <mxGeometry relative="1" as="geometry" />
        </mxCell>
        <mxCell id="eDjvxQ4qI4vpgXlW1Nu9-3" value="start game" style="whiteSpace=wrap;html=1;rounded=0;" parent="1" vertex="1">
          <mxGeometry x="-1210" y="-310" width="120" height="60" as="geometry" />
        </mxCell>
        <mxCell id="eDjvxQ4qI4vpgXlW1Nu9-16" value="" style="edgeStyle=orthogonalEdgeStyle;rounded=0;orthogonalLoop=1;jettySize=auto;html=1;" parent="1" source="eDjvxQ4qI4vpgXlW1Nu9-5" target="eDjvxQ4qI4vpgXlW1Nu9-15" edge="1">
          <mxGeometry relative="1" as="geometry" />
        </mxCell>
        <mxCell id="eDjvxQ4qI4vpgXlW1Nu9-18" style="edgeStyle=orthogonalEdgeStyle;rounded=0;orthogonalLoop=1;jettySize=auto;html=1;" parent="1" source="eDjvxQ4qI4vpgXlW1Nu9-5" target="eDjvxQ4qI4vpgXlW1Nu9-17" edge="1">
          <mxGeometry relative="1" as="geometry" />
        </mxCell>
        <mxCell id="eDjvxQ4qI4vpgXlW1Nu9-5" value="option" style="whiteSpace=wrap;html=1;rounded=0;" parent="1" vertex="1">
          <mxGeometry x="-979.9999999999999" y="-310" width="120" height="60" as="geometry" />
        </mxCell>
        <mxCell id="eDjvxQ4qI4vpgXlW1Nu9-7" value="end game" style="whiteSpace=wrap;html=1;rounded=0;" parent="1" vertex="1">
          <mxGeometry x="-769.9999999999999" y="-310" width="120" height="60" as="geometry" />
        </mxCell>
        <mxCell id="eDjvxQ4qI4vpgXlW1Nu9-9" value="难度选择" style="whiteSpace=wrap;html=1;rounded=0;" parent="1" vertex="1">
          <mxGeometry x="-1330" y="-200" width="120" height="60" as="geometry" />
        </mxCell>
        <mxCell id="eDjvxQ4qI4vpgXlW1Nu9-13" value="人数选择" style="whiteSpace=wrap;html=1;rounded=0;" parent="1" vertex="1">
          <mxGeometry x="-1160" y="-200" width="120" height="60" as="geometry" />
        </mxCell>
        <mxCell id="eDjvxQ4qI4vpgXlW1Nu9-15" value="画面" style="whiteSpace=wrap;html=1;rounded=0;" parent="1" vertex="1">
          <mxGeometry x="-999.9999999999999" y="-200" width="120" height="60" as="geometry" />
        </mxCell>
        <mxCell id="eDjvxQ4qI4vpgXlW1Nu9-17" value="声音" style="rounded=0;whiteSpace=wrap;html=1;" parent="1" vertex="1">
          <mxGeometry x="-979.9999999999999" y="-100" width="120" height="60" as="geometry" />
        </mxCell>
        <mxCell id="eDjvxQ4qI4vpgXlW1Nu9-20" style="edgeStyle=orthogonalEdgeStyle;rounded=0;orthogonalLoop=1;jettySize=auto;html=1;" parent="1" source="eDjvxQ4qI4vpgXlW1Nu9-19" target="eDjvxQ4qI4vpgXlW1Nu9-2" edge="1">
          <mxGeometry relative="1" as="geometry" />
        </mxCell>
        <mxCell id="eDjvxQ4qI4vpgXlW1Nu9-19" value="press enter to continue" style="rounded=0;whiteSpace=wrap;html=1;" parent="1" vertex="1">
          <mxGeometry x="-979.9999999999999" y="-500" width="120" height="60" as="geometry" />
        </mxCell>
        <mxCell id="Dl-SQO9RMqr-6nA1L3A8-8" value="" style="edgeStyle=orthogonalEdgeStyle;rounded=0;orthogonalLoop=1;jettySize=auto;html=1;" parent="1" source="Dl-SQO9RMqr-6nA1L3A8-1" target="Dl-SQO9RMqr-6nA1L3A8-7" edge="1">
          <mxGeometry relative="1" as="geometry" />
        </mxCell>
        <mxCell id="Dl-SQO9RMqr-6nA1L3A8-1" value="game start" style="rounded=0;whiteSpace=wrap;html=1;" parent="1" vertex="1">
          <mxGeometry x="-1099.8600000000001" y="100" width="120" height="60" as="geometry" />
        </mxCell>
        <mxCell id="bTGDOJ0MJef6S4-PFqFq-3" value="" style="edgeStyle=orthogonalEdgeStyle;rounded=0;orthogonalLoop=1;jettySize=auto;html=1;" parent="1" source="Dl-SQO9RMqr-6nA1L3A8-7" target="bTGDOJ0MJef6S4-PFqFq-2" edge="1">
          <mxGeometry relative="1" as="geometry" />
        </mxCell>
        <mxCell id="Dl-SQO9RMqr-6nA1L3A8-7" value="set up" style="whiteSpace=wrap;html=1;rounded=0;" parent="1" vertex="1">
          <mxGeometry x="-1099.8600000000001" y="220" width="120" height="60" as="geometry" />
        </mxCell>
        <mxCell id="Dl-SQO9RMqr-6nA1L3A8-14" value="shuffle the tiles" style="rounded=0;whiteSpace=wrap;html=1;" parent="1" vertex="1">
          <mxGeometry x="-949.86" y="120" width="100" height="40" as="geometry" />
        </mxCell>
        <mxCell id="Dl-SQO9RMqr-6nA1L3A8-24" value="" style="shape=curlyBracket;whiteSpace=wrap;html=1;rounded=1;labelPosition=left;verticalLabelPosition=middle;align=right;verticalAlign=middle;" parent="1" vertex="1">
          <mxGeometry x="-979.86" y="180" width="20" height="120" as="geometry" />
        </mxCell>
        <mxCell id="Dl-SQO9RMqr-6nA1L3A8-25" value="place the tiles" style="rounded=0;whiteSpace=wrap;html=1;" parent="1" vertex="1">
          <mxGeometry x="-949.86" y="170" width="100" height="40" as="geometry" />
        </mxCell>
        <mxCell id="Dl-SQO9RMqr-6nA1L3A8-26" value="initialize the flood" style="rounded=0;whiteSpace=wrap;html=1;" parent="1" vertex="1">
          <mxGeometry x="-949.86" y="340" width="100" height="30" as="geometry" />
        </mxCell>
        <mxCell id="Dl-SQO9RMqr-6nA1L3A8-27" value="divide the cards" style="rounded=0;whiteSpace=wrap;html=1;" parent="1" vertex="1">
          <mxGeometry x="-949.86" y="300" width="100" height="30" as="geometry" />
        </mxCell>
        <mxCell id="Dl-SQO9RMqr-6nA1L3A8-28" value="draw the sink card" style="rounded=0;whiteSpace=wrap;html=1;" parent="1" vertex="1">
          <mxGeometry x="-949.86" y="220" width="100" height="30" as="geometry" />
        </mxCell>
        <mxCell id="Dl-SQO9RMqr-6nA1L3A8-30" value="random give the charactor" style="rounded=0;whiteSpace=wrap;html=1;" parent="1" vertex="1">
          <mxGeometry x="-949.86" y="260" width="100" height="30" as="geometry" />
        </mxCell>
        <mxCell id="bTGDOJ0MJef6S4-PFqFq-1" value="lose condition judgement" style="rounded=0;whiteSpace=wrap;html=1;" parent="1" vertex="1">
          <mxGeometry x="-659.86" y="637.5" width="120" height="60" as="geometry" />
        </mxCell>
        <mxCell id="bTGDOJ0MJef6S4-PFqFq-8" value="" style="edgeStyle=orthogonalEdgeStyle;rounded=0;orthogonalLoop=1;jettySize=auto;html=1;" parent="1" source="bTGDOJ0MJef6S4-PFqFq-2" target="bTGDOJ0MJef6S4-PFqFq-7" edge="1">
          <mxGeometry relative="1" as="geometry" />
        </mxCell>
        <mxCell id="bTGDOJ0MJef6S4-PFqFq-10" value="" style="edgeStyle=orthogonalEdgeStyle;rounded=0;orthogonalLoop=1;jettySize=auto;html=1;" parent="1" source="bTGDOJ0MJef6S4-PFqFq-2" target="bTGDOJ0MJef6S4-PFqFq-9" edge="1">
          <mxGeometry relative="1" as="geometry" />
        </mxCell>
        <mxCell id="bTGDOJ0MJef6S4-PFqFq-2" value="player round&lt;div&gt;(the round that player can move, use special card)&lt;/div&gt;" style="whiteSpace=wrap;html=1;rounded=0;" parent="1" vertex="1">
          <mxGeometry x="-1099.8600000000001" y="440" width="120" height="60" as="geometry" />
        </mxCell>
        <mxCell id="bTGDOJ0MJef6S4-PFqFq-7" value="player action" style="whiteSpace=wrap;html=1;rounded=0;" parent="1" vertex="1">
          <mxGeometry x="-849.86" y="390" width="120" height="60" as="geometry" />
        </mxCell>
        <mxCell id="bTGDOJ0MJef6S4-PFqFq-22" style="edgeStyle=orthogonalEdgeStyle;rounded=0;orthogonalLoop=1;jettySize=auto;html=1;entryX=0;entryY=0.5;entryDx=0;entryDy=0;" parent="1" source="bTGDOJ0MJef6S4-PFqFq-9" target="bTGDOJ0MJef6S4-PFqFq-2" edge="1">
          <mxGeometry relative="1" as="geometry">
            <Array as="points">
              <mxPoint x="-1159.8600000000001" y="610" />
              <mxPoint x="-1159.8600000000001" y="470" />
            </Array>
          </mxGeometry>
        </mxCell>
        <mxCell id="bTGDOJ0MJef6S4-PFqFq-9" value="computer round&lt;div&gt;(draw cards and do movement)&lt;/div&gt;" style="whiteSpace=wrap;html=1;rounded=0;" parent="1" vertex="1">
          <mxGeometry x="-1099.8600000000001" y="580" width="120" height="60" as="geometry" />
        </mxCell>
        <mxCell id="bTGDOJ0MJef6S4-PFqFq-13" value="" style="shape=curlyBracket;whiteSpace=wrap;html=1;rounded=1;labelPosition=left;verticalLabelPosition=middle;align=right;verticalAlign=middle;" parent="1" vertex="1">
          <mxGeometry x="-969.86" y="550" width="20" height="120" as="geometry" />
        </mxCell>
        <mxCell id="bTGDOJ0MJef6S4-PFqFq-18" style="edgeStyle=orthogonalEdgeStyle;rounded=0;orthogonalLoop=1;jettySize=auto;html=1;" parent="1" source="bTGDOJ0MJef6S4-PFqFq-14" target="bTGDOJ0MJef6S4-PFqFq-17" edge="1">
          <mxGeometry relative="1" as="geometry" />
        </mxCell>
        <mxCell id="bTGDOJ0MJef6S4-PFqFq-14" value="draw treasure cards" style="rounded=0;whiteSpace=wrap;html=1;" parent="1" vertex="1">
          <mxGeometry x="-939.86" y="530" width="113" height="50" as="geometry" />
        </mxCell>
        <mxCell id="bTGDOJ0MJef6S4-PFqFq-16" style="edgeStyle=orthogonalEdgeStyle;rounded=0;orthogonalLoop=1;jettySize=auto;html=1;" parent="1" source="bTGDOJ0MJef6S4-PFqFq-15" target="bTGDOJ0MJef6S4-PFqFq-1" edge="1">
          <mxGeometry relative="1" as="geometry" />
        </mxCell>
        <mxCell id="bTGDOJ0MJef6S4-PFqFq-15" value="draw flood cards" style="rounded=0;whiteSpace=wrap;html=1;" parent="1" vertex="1">
          <mxGeometry x="-939.86" y="645" width="113" height="45" as="geometry" />
        </mxCell>
        <mxCell id="bTGDOJ0MJef6S4-PFqFq-19" style="edgeStyle=orthogonalEdgeStyle;rounded=0;orthogonalLoop=1;jettySize=auto;html=1;" parent="1" source="bTGDOJ0MJef6S4-PFqFq-17" target="bTGDOJ0MJef6S4-PFqFq-1" edge="1">
          <mxGeometry relative="1" as="geometry" />
        </mxCell>
        <mxCell id="bTGDOJ0MJef6S4-PFqFq-17" value="water rise card" style="rounded=0;whiteSpace=wrap;html=1;" parent="1" vertex="1">
          <mxGeometry x="-769.86" y="540" width="100" height="30" as="geometry" />
        </mxCell>
        <mxCell id="bTGDOJ0MJef6S4-PFqFq-23" value="" style="shape=curlyBracket;whiteSpace=wrap;html=1;rounded=1;labelPosition=left;verticalLabelPosition=middle;align=right;verticalAlign=middle;" parent="1" vertex="1">
          <mxGeometry x="-719.86" y="350" width="20" height="120" as="geometry" />
        </mxCell>
        <mxCell id="bTGDOJ0MJef6S4-PFqFq-24" value="move" style="rounded=0;whiteSpace=wrap;html=1;" parent="1" vertex="1">
          <mxGeometry x="-690" y="335" width="100" height="35" as="geometry" />
        </mxCell>
        <mxCell id="bTGDOJ0MJef6S4-PFqFq-25" value="shove up" style="rounded=0;whiteSpace=wrap;html=1;" parent="1" vertex="1">
          <mxGeometry x="-690" y="380" width="100" height="30" as="geometry" />
        </mxCell>
        <mxCell id="bTGDOJ0MJef6S4-PFqFq-26" value="give cards" style="rounded=0;whiteSpace=wrap;html=1;" parent="1" vertex="1">
          <mxGeometry x="-690" y="420" width="100" height="30" as="geometry" />
        </mxCell>
        <mxCell id="bTGDOJ0MJef6S4-PFqFq-27" value="capture treasures" style="rounded=0;whiteSpace=wrap;html=1;" parent="1" vertex="1">
          <mxGeometry x="-690" y="460" width="100" height="30" as="geometry" />
        </mxCell>
        <mxCell id="bTGDOJ0MJef6S4-PFqFq-28" value="general game frame" style="text;strokeColor=none;fillColor=none;html=1;fontSize=24;fontStyle=1;verticalAlign=middle;align=center;" parent="1" vertex="1">
          <mxGeometry x="-1019.8599999999999" y="-20" width="100" height="40" as="geometry" />
        </mxCell>
        <mxCell id="bTGDOJ0MJef6S4-PFqFq-29" value="abandon" style="rounded=0;whiteSpace=wrap;html=1;" parent="1" vertex="1">
          <mxGeometry x="-690" y="290" width="100" height="30" as="geometry" />
        </mxCell>
        <mxCell id="bTGDOJ0MJef6S4-PFqFq-36" value="player action" style="swimlane;fontStyle=0;childLayout=stackLayout;horizontal=1;startSize=26;horizontalStack=0;resizeParent=1;resizeParentMax=0;resizeLast=0;collapsible=1;marginBottom=0;align=center;fontSize=14;" parent="1" vertex="1">
          <mxGeometry x="-210" y="14" width="170" height="176" as="geometry" />
        </mxCell>
        <mxCell id="bTGDOJ0MJef6S4-PFqFq-37" value="move" style="text;strokeColor=none;fillColor=none;spacingLeft=4;spacingRight=4;overflow=hidden;rotatable=0;points=[[0,0.5],[1,0.5]];portConstraint=eastwest;fontSize=12;whiteSpace=wrap;html=1;" parent="bTGDOJ0MJef6S4-PFqFq-36" vertex="1">
          <mxGeometry y="26" width="170" height="30" as="geometry" />
        </mxCell>
        <mxCell id="bTGDOJ0MJef6S4-PFqFq-38" value="shore up" style="text;strokeColor=none;fillColor=none;spacingLeft=4;spacingRight=4;overflow=hidden;rotatable=0;points=[[0,0.5],[1,0.5]];portConstraint=eastwest;fontSize=12;whiteSpace=wrap;html=1;" parent="bTGDOJ0MJef6S4-PFqFq-36" vertex="1">
          <mxGeometry y="56" width="170" height="30" as="geometry" />
        </mxCell>
        <mxCell id="bTGDOJ0MJef6S4-PFqFq-39" value="give cards" style="text;strokeColor=none;fillColor=none;spacingLeft=4;spacingRight=4;overflow=hidden;rotatable=0;points=[[0,0.5],[1,0.5]];portConstraint=eastwest;fontSize=12;whiteSpace=wrap;html=1;" parent="bTGDOJ0MJef6S4-PFqFq-36" vertex="1">
          <mxGeometry y="86" width="170" height="30" as="geometry" />
        </mxCell>
        <mxCell id="bTGDOJ0MJef6S4-PFqFq-44" value="capture treasures" style="text;strokeColor=none;fillColor=none;spacingLeft=4;spacingRight=4;overflow=hidden;rotatable=0;points=[[0,0.5],[1,0.5]];portConstraint=eastwest;fontSize=12;whiteSpace=wrap;html=1;" parent="bTGDOJ0MJef6S4-PFqFq-36" vertex="1">
          <mxGeometry y="116" width="170" height="30" as="geometry" />
        </mxCell>
        <mxCell id="bTGDOJ0MJef6S4-PFqFq-45" value="abandon" style="text;strokeColor=none;fillColor=none;spacingLeft=4;spacingRight=4;overflow=hidden;rotatable=0;points=[[0,0.5],[1,0.5]];portConstraint=eastwest;fontSize=12;whiteSpace=wrap;html=1;" parent="bTGDOJ0MJef6S4-PFqFq-36" vertex="1">
          <mxGeometry y="146" width="170" height="30" as="geometry" />
        </mxCell>
        <mxCell id="bTGDOJ0MJef6S4-PFqFq-46" value="adventurers" style="whiteSpace=wrap;html=1;rounded=0;" parent="1" vertex="1">
          <mxGeometry x="60" y="380" width="120" height="60" as="geometry" />
        </mxCell>
        <mxCell id="bTGDOJ0MJef6S4-PFqFq-50" value="title page&amp;nbsp;" style="text;strokeColor=none;fillColor=none;html=1;fontSize=24;fontStyle=1;verticalAlign=middle;align=center;" parent="1" vertex="1">
          <mxGeometry x="-969.9999999999999" y="-620" width="100" height="40" as="geometry" />
        </mxCell>
        <mxCell id="bTGDOJ0MJef6S4-PFqFq-56" value="Extends" style="endArrow=block;endSize=16;endFill=0;html=1;rounded=0;" parent="1" source="bTGDOJ0MJef6S4-PFqFq-46" edge="1" target="PWMtbpQYr318IuW6NhmS-2">
          <mxGeometry width="160" relative="1" as="geometry">
            <mxPoint x="160" y="550" as="sourcePoint" />
            <mxPoint x="110" y="260.0000000000002" as="targetPoint" />
          </mxGeometry>
        </mxCell>
        <mxCell id="bTGDOJ0MJef6S4-PFqFq-66" style="edgeStyle=orthogonalEdgeStyle;rounded=0;orthogonalLoop=1;jettySize=auto;html=1;" parent="1" source="bTGDOJ0MJef6S4-PFqFq-58" target="VjPRYB1g1QLdpqp4aKT3-6" edge="1">
          <mxGeometry relative="1" as="geometry" />
        </mxCell>
        <mxCell id="bTGDOJ0MJef6S4-PFqFq-58" value="card" style="rounded=0;whiteSpace=wrap;html=1;" parent="1" vertex="1">
          <mxGeometry x="780" y="320" width="120" height="60" as="geometry" />
        </mxCell>
        <mxCell id="bTGDOJ0MJef6S4-PFqFq-67" value="special card" style="rounded=0;whiteSpace=wrap;html=1;" parent="1" vertex="1">
          <mxGeometry x="780" y="450" width="120" height="60" as="geometry" />
        </mxCell>
        <mxCell id="bTGDOJ0MJef6S4-PFqFq-70" value="Extends" style="endArrow=block;endSize=16;endFill=0;html=1;rounded=0;" parent="1" source="bTGDOJ0MJef6S4-PFqFq-67" target="bTGDOJ0MJef6S4-PFqFq-58" edge="1">
          <mxGeometry width="160" relative="1" as="geometry">
            <mxPoint x="630" y="490" as="sourcePoint" />
            <mxPoint x="790" y="490" as="targetPoint" />
          </mxGeometry>
        </mxCell>
        <mxCell id="bTGDOJ0MJef6S4-PFqFq-88" style="edgeStyle=orthogonalEdgeStyle;rounded=0;orthogonalLoop=1;jettySize=auto;html=1;" parent="1" source="PWMtbpQYr318IuW6NhmS-2" target="bTGDOJ0MJef6S4-PFqFq-36" edge="1">
          <mxGeometry relative="1" as="geometry">
            <mxPoint x="30" y="205" as="sourcePoint" />
          </mxGeometry>
        </mxCell>
        <mxCell id="bTGDOJ0MJef6S4-PFqFq-85" value="" style="edgeStyle=orthogonalEdgeStyle;rounded=0;orthogonalLoop=1;jettySize=auto;html=1;" parent="1" source="bTGDOJ0MJef6S4-PFqFq-83" target="bTGDOJ0MJef6S4-PFqFq-84" edge="1">
          <mxGeometry relative="1" as="geometry" />
        </mxCell>
        <mxCell id="bTGDOJ0MJef6S4-PFqFq-87" value="" style="edgeStyle=orthogonalEdgeStyle;rounded=0;orthogonalLoop=1;jettySize=auto;html=1;" parent="1" source="bTGDOJ0MJef6S4-PFqFq-83" target="bTGDOJ0MJef6S4-PFqFq-86" edge="1">
          <mxGeometry relative="1" as="geometry" />
        </mxCell>
        <mxCell id="bTGDOJ0MJef6S4-PFqFq-83" value="shuffle" style="rounded=0;whiteSpace=wrap;html=1;" parent="1" vertex="1">
          <mxGeometry x="570" y="600" width="120" height="60" as="geometry" />
        </mxCell>
        <mxCell id="bTGDOJ0MJef6S4-PFqFq-84" value="random" style="rounded=0;whiteSpace=wrap;html=1;" parent="1" vertex="1">
          <mxGeometry x="570" y="710" width="120" height="60" as="geometry" />
        </mxCell>
        <mxCell id="bTGDOJ0MJef6S4-PFqFq-86" value="&lt;span style=&quot;white-space: pre;&quot;&gt;&#x9;倒序&lt;/span&gt;" style="whiteSpace=wrap;html=1;rounded=0;" parent="1" vertex="1">
          <mxGeometry x="770" y="707.5" width="120" height="62.5" as="geometry" />
        </mxCell>
        <mxCell id="PWMtbpQYr318IuW6NhmS-2" value="player" style="rounded=0;whiteSpace=wrap;html=1;" vertex="1" parent="1">
          <mxGeometry x="60" y="180" width="120" height="60" as="geometry" />
        </mxCell>
      </root>
    </mxGraphModel>
  </diagram>
</mxfile>
